<?xml version="1.0" encoding="UTF-8" standalone="no"?>
<!DOCTYPE svg PUBLIC "-//W3C//DTD SVG 1.0//EN" "http://www.w3.org/TR/2001/PR-SVG-20010719/DTD/svg10.dtd">
<svg width="70cm" height="38cm" viewBox="-16 66 1397 747" xmlns="http://www.w3.org/2000/svg" xmlns:xlink="http://www.w3.org/1999/xlink">
  <g>
    <rect style="fill: #ffffff" x="-15" y="209.5" width="1119" height="474"/>
    <rect style="fill: none; fill-opacity:0; stroke-width: 0.2; stroke: #000000" x="-15" y="209.5" width="1119" height="474"/>
    <rect style="fill: #ffffff" x="-15" y="189.5" width="127.2" height="20"/>
    <rect style="fill: none; fill-opacity:0; stroke-width: 0.2; stroke: #000000" x="-15" y="189.5" width="127.2" height="20"/>
    <text font-size="12.7998" style="fill: #000000;text-anchor:start;font-family:monospace;font-style:normal;font-weight:normal" x="-13" y="203.5">java.swing.table</text>
  </g>
  <g>
    <rect style="fill: #ffffff" x="600" y="238" width="433.5" height="44"/>
    <rect style="fill: none; fill-opacity:0; stroke-width: 2; stroke: #000000" x="600" y="238" width="433.5" height="44"/>
    <text font-size="12.8" style="fill: #000000;text-anchor:middle;font-family:monospace;font-style:normal;font-weight:normal" x="816.75" y="253.2">&lt;&lt;Interface&gt;&gt;</text>
    <text font-size="16" style="fill: #000000;text-anchor:middle;font-family:sans-serif;font-style:normal;font-weight:700" x="816.75" y="274">TableModel</text>
    <rect style="fill: #ffffff" x="600" y="282" width="433.5" height="8"/>
    <rect style="fill: none; fill-opacity:0; stroke-width: 2; stroke: #000000" x="600" y="282" width="433.5" height="8"/>
    <rect style="fill: #ffffff" x="600" y="290" width="433.5" height="116"/>
    <rect style="fill: none; fill-opacity:0; stroke-width: 2; stroke: #000000" x="600" y="290" width="433.5" height="116"/>
    <text font-size="12.8" style="fill: #000000;text-anchor:start;font-family:monospace;font-style:normal;font-weight:normal" x="603" y="303.2">+getColumnCount(): int</text>
    <text font-size="12.8" style="fill: #000000;text-anchor:start;font-family:monospace;font-style:normal;font-weight:normal" x="603" y="319.2">+getRowCount(): int</text>
    <text font-size="12.8" style="fill: #000000;text-anchor:start;font-family:monospace;font-style:normal;font-weight:normal" x="603" y="335.2">+getValueAt(rowIndex:int,columnIndex:int): Object</text>
    <text font-size="12.8" style="fill: #000000;text-anchor:start;font-family:monospace;font-style:normal;font-weight:normal" x="603" y="351.2">+setValueAt(aValue:Object,rowIndex:int,columnIndex:int)</text>
    <text font-size="12.8" style="fill: #000000;text-anchor:start;font-family:monospace;font-style:normal;font-weight:normal" x="603" y="367.2">+getColumnClass(columnIndex:int): Class</text>
    <text font-size="12.8" style="fill: #000000;text-anchor:start;font-family:monospace;font-style:normal;font-weight:normal" x="603" y="383.2">+getColumnName(columnIndex:int): String</text>
    <text font-size="12.8" style="fill: #000000;text-anchor:start;font-family:monospace;font-style:normal;font-weight:normal" x="603" y="399.2">+...()</text>
  </g>
  <g>
    <rect style="fill: #ffffff" x="188" y="68" width="62.8" height="28"/>
    <rect style="fill: none; fill-opacity:0; stroke-width: 2; stroke: #bfbfbf" x="188" y="68" width="62.8" height="28"/>
    <text font-size="16" style="fill: #000000;text-anchor:middle;font-family:sans-serif;font-style:normal;font-weight:700" x="219.4" y="88">Object</text>
    <rect style="fill: #ffffff" x="188" y="96" width="62.8" height="8"/>
    <rect style="fill: none; fill-opacity:0; stroke-width: 2; stroke: #bfbfbf" x="188" y="96" width="62.8" height="8"/>
    <rect style="fill: #ffffff" x="188" y="104" width="62.8" height="8"/>
    <rect style="fill: none; fill-opacity:0; stroke-width: 2; stroke: #bfbfbf" x="188" y="104" width="62.8" height="8"/>
  </g>
  <g>
    <polyline style="fill: none; fill-opacity:0; stroke-width: 2; stroke: #000000" points="219.4,130.236 219.4,212.545 219.15,212.545 219.15,297.091 "/>
    <polygon style="fill: #ffffff" points="227.4,130.236 219.4,114.236 211.4,130.236 "/>
    <polygon style="fill: none; fill-opacity:0; stroke-width: 2; stroke: #000000" points="227.4,130.236 219.4,114.236 211.4,130.236 "/>
  </g>
  <g>
    <polyline style="fill: none; fill-opacity:0; stroke-width: 2; stroke-dasharray: 8; stroke: #000000" points="581.764,260 509.95,260 509.95,320.1 435.9,320.1 "/>
    <polygon style="fill: #ffffff" points="581.764,268 597.764,260 581.764,252 "/>
    <polygon style="fill: none; fill-opacity:0; stroke-width: 2; stroke: #000000" points="581.764,268 597.764,260 581.764,252 "/>
  </g>
  <g>
    <rect style="fill: #ffffff" x="304" y="108" width="110.1" height="44"/>
    <rect style="fill: none; fill-opacity:0; stroke-width: 2; stroke: #bfbfbf" x="304" y="108" width="110.1" height="44"/>
    <text font-size="12.8" style="fill: #000000;text-anchor:middle;font-family:monospace;font-style:normal;font-weight:normal" x="359.05" y="123.2">&lt;&lt;Interface&gt;&gt;</text>
    <text font-size="16" style="fill: #000000;text-anchor:middle;font-family:sans-serif;font-style:normal;font-weight:700" x="359.05" y="144">Serializable</text>
    <rect style="fill: #ffffff" x="304" y="152" width="110.1" height="8"/>
    <rect style="fill: none; fill-opacity:0; stroke-width: 2; stroke: #bfbfbf" x="304" y="152" width="110.1" height="8"/>
    <rect style="fill: #ffffff" x="304" y="160" width="110.1" height="8"/>
    <rect style="fill: none; fill-opacity:0; stroke-width: 2; stroke: #bfbfbf" x="304" y="160" width="110.1" height="8"/>
  </g>
  <g>
    <polyline style="fill: none; fill-opacity:0; stroke-width: 2; stroke-dasharray: 8; stroke: #000000" points="359.05,186.236 359.05,218.5 219.15,218.5 219.15,297.117 "/>
    <polygon style="fill: #ffffff" points="367.05,186.236 359.05,170.236 351.05,186.236 "/>
    <polygon style="fill: none; fill-opacity:0; stroke-width: 2; stroke: #000000" points="367.05,186.236 359.05,170.236 351.05,186.236 "/>
  </g>
  <g>
    <rect style="fill: #ffffff" x="2.4" y="298.1" width="433.5" height="44"/>
    <rect style="fill: none; fill-opacity:0; stroke-width: 2; stroke: #000000" x="2.4" y="298.1" width="433.5" height="44"/>
    <text font-size="12.8" style="fill: #000000;text-anchor:middle;font-family:monospace;font-style:normal;font-weight:normal" x="219.15" y="313.3">&lt;&lt;Abstract&gt;&gt;</text>
    <text font-size="16" style="fill: #000000;text-anchor:middle;font-family:sans-serif;font-style:oblique;font-weight:normal" x="219.15" y="334.1">AbstractTableModel</text>
    <rect style="fill: #ffffff" x="2.4" y="342.1" width="433.5" height="8"/>
    <rect style="fill: none; fill-opacity:0; stroke-width: 2; stroke: #000000" x="2.4" y="342.1" width="433.5" height="8"/>
    <rect style="fill: #ffffff" x="2.4" y="350.1" width="433.5" height="100"/>
    <rect style="fill: none; fill-opacity:0; stroke-width: 2; stroke: #000000" x="2.4" y="350.1" width="433.5" height="100"/>
    <text font-size="12.8" style="fill: #000000;text-anchor:start;font-family:monospace;font-style:normal;font-weight:normal" x="5.4" y="363.3">+getColumnCount(): int</text>
    <text font-size="12.8" style="fill: #000000;text-anchor:start;font-family:monospace;font-style:normal;font-weight:normal" x="5.4" y="379.3">+getRowCount(): int</text>
    <text font-size="12.8" style="fill: #000000;text-anchor:start;font-family:monospace;font-style:normal;font-weight:normal" x="5.4" y="395.3">+getValueAt(rowIndex:int,columnIndex:int): Object</text>
    <text font-size="12.8" style="fill: #000000;text-anchor:start;font-family:monospace;font-style:normal;font-weight:normal" x="5.4" y="411.3">+setValueAt(aValue:Object,rowIndex:int,columnIndex:int)</text>
    <text font-size="12.8" style="fill: #000000;text-anchor:start;font-family:monospace;font-style:normal;font-weight:normal" x="5.4" y="427.3">+getColumnClass(columnIndex:int): Class</text>
    <text font-size="12.8" style="fill: #000000;text-anchor:start;font-family:monospace;font-style:normal;font-weight:normal" x="5.4" y="443.3">+getColumnName(columnIndex:int): String</text>
  </g>
  <g>
    <rect style="fill: #ffff00" x="1115" y="100.2" width="264" height="47.45"/>
    <text font-size="12.7998" style="fill: #000000;text-anchor:start;font-family:sans-serif;font-style:normal;font-weight:normal" x="1115" y="113">
      <tspan x="1115" y="113">            </tspan>
      <tspan x="1115" y="129">                     </tspan>
      <tspan x="1115" y="145">                                                                  </tspan>
    </text>
  </g>
  <g>
    <rect style="fill: #00ff00" x="1116.4" y="157.1" width="264" height="47.45"/>
    <text font-size="12.7998" style="fill: #000000;text-anchor:start;font-family:sans-serif;font-style:normal;font-weight:normal" x="1116.4" y="169.9">
      <tspan x="1116.4" y="169.9">            </tspan>
      <tspan x="1116.4" y="185.9">                     </tspan>
      <tspan x="1116.4" y="201.9">                                                                  </tspan>
    </text>
  </g>
  <g>
    <rect style="fill: #ffffff" x="345.4" y="519.85" width="387.3" height="28"/>
    <rect style="fill: none; fill-opacity:0; stroke-width: 2; stroke: #000000" x="345.4" y="519.85" width="387.3" height="28"/>
    <text font-size="16" style="fill: #000000;text-anchor:middle;font-family:sans-serif;font-style:normal;font-weight:700" x="539.05" y="539.85">DefaultTableModel</text>
    <rect style="fill: #ffffff" x="345.4" y="547.85" width="387.3" height="36"/>
    <rect style="fill: none; fill-opacity:0; stroke-width: 2; stroke: #000000" x="345.4" y="547.85" width="387.3" height="36"/>
    <text font-size="12.8" style="fill: #000000;text-anchor:start;font-family:monospace;font-style:normal;font-weight:normal" x="348.4" y="561.05">#columnIdentifiers: Vector</text>
    <text font-size="12.8" style="fill: #000000;text-anchor:start;font-family:monospace;font-style:normal;font-weight:normal" x="348.4" y="577.05">#dataVector: Vector&lt;Vector&gt;</text>
    <rect style="fill: #ffffff" x="345.4" y="583.85" width="387.3" height="84"/>
    <rect style="fill: none; fill-opacity:0; stroke-width: 2; stroke: #000000" x="345.4" y="583.85" width="387.3" height="84"/>
    <text font-size="12.8" style="fill: #000000;text-anchor:start;font-family:monospace;font-style:normal;font-weight:normal" x="348.4" y="597.05">+getColumnCount(): int</text>
    <text font-size="12.8" style="fill: #000000;text-anchor:start;font-family:monospace;font-style:normal;font-weight:normal" x="348.4" y="613.05">+getRowCount(): int</text>
    <text font-size="12.8" style="fill: #000000;text-anchor:start;font-family:monospace;font-style:normal;font-weight:normal" x="348.4" y="629.05">+getValueAt(rowIndex:int,columnIndex:int): Object</text>
    <text font-size="12.8" style="fill: #000000;text-anchor:start;font-family:monospace;font-style:normal;font-weight:normal" x="348.4" y="645.05">+getColumnName(column:int): String</text>
    <text font-size="12.8" style="fill: #000000;text-anchor:start;font-family:monospace;font-style:normal;font-weight:normal" x="348.4" y="661.05">+...()</text>
  </g>
  <g>
    <polyline style="fill: none; fill-opacity:0; stroke-width: 2; stroke: #000000" points="219.15,468.336 219.15,492.975 539.05,492.975 539.05,519.85 "/>
    <polygon style="fill: #ffffff" points="227.15,468.336 219.15,452.336 211.15,468.336 "/>
    <polygon style="fill: none; fill-opacity:0; stroke-width: 2; stroke: #000000" points="227.15,468.336 219.15,452.336 211.15,468.336 "/>
  </g>
  <g>
    <rect style="fill: #ffffff" x="258.4" y="696.85" width="387.3" height="28"/>
    <rect style="fill: none; fill-opacity:0; stroke-width: 2; stroke: #000000" x="258.4" y="696.85" width="387.3" height="28"/>
    <text font-size="16" style="fill: #000000;text-anchor:middle;font-family:sans-serif;font-style:normal;font-weight:700" x="452.05" y="716.85">HerrienTableModel</text>
    <rect style="fill: #ffffff" x="258.4" y="724.85" width="387.3" height="36"/>
    <rect style="fill: none; fill-opacity:0; stroke-width: 2; stroke: #000000" x="258.4" y="724.85" width="387.3" height="36"/>
    <text font-size="12.8" style="fill: #000000;text-anchor:start;font-family:monospace;font-style:normal;font-weight:normal" x="261.4" y="738.05">#columnIdentifiers: Vector</text>
    <text font-size="12.8" style="fill: #000000;text-anchor:start;font-family:monospace;font-style:normal;font-weight:normal" x="261.4" y="754.05">#dataVector: Vector&lt;Vector&gt;</text>
    <rect style="fill: #ffffff" x="258.4" y="760.85" width="387.3" height="52"/>
    <rect style="fill: none; fill-opacity:0; stroke-width: 2; stroke: #000000" x="258.4" y="760.85" width="387.3" height="52"/>
    <text font-size="12.8" style="fill: #000000;text-anchor:start;font-family:monospace;font-style:normal;font-weight:normal" x="261.4" y="774.05">+getColumnCount(): int</text>
    <text font-size="12.8" style="fill: #000000;text-anchor:start;font-family:monospace;font-style:normal;font-weight:normal" x="261.4" y="790.05">+getRowCount(): int</text>
    <text font-size="12.8" style="fill: #000000;text-anchor:start;font-family:monospace;font-style:normal;font-weight:normal" x="261.4" y="806.05">+getValueAt(rowIndex:int,columnIndex:int): Object</text>
  </g>
  <g>
    <rect style="fill: #00ff00" x="1116.6" y="212.5" width="264" height="47.45"/>
    <text font-size="12.7998" style="fill: #000000;text-anchor:start;font-family:sans-serif;font-style:normal;font-weight:normal" x="1116.6" y="225.3">
      <tspan x="1116.6" y="225.3">            </tspan>
      <tspan x="1116.6" y="241.3">                     </tspan>
      <tspan x="1116.6" y="257.3">                                                                  </tspan>
    </text>
  </g>
</svg>
